<?xml version="1.0" standalone="no"?>
<!DOCTYPE svg PUBLIC "-//W3C//DTD SVG 20010904//EN"
 "http://www.w3.org/TR/2001/REC-SVG-20010904/DTD/svg10.dtd">
<svg version="1.0" xmlns="http://www.w3.org/2000/svg"
 width="250.000000pt" height="250.000000pt" viewBox="0 0 250.000000 250.000000"
 preserveAspectRatio="xMidYMid meet">
<metadata>
Created by potrace 1.14, written by Peter Selinger 2001-2017
</metadata>
<g transform="translate(0.000000,250.000000) scale(0.100000,-0.100000)"
fill="#000000" stroke="none">
<path d="M0 1250 l0 -1250 1250 0 1250 0 0 1250 0 1250 -1250 0 -1250 0 0
-1250z m1905 703 c36 -12 68 -35 114 -80 58 -58 67 -64 100 -61 l36 3 3 68 3
67 109 0 110 0 0 -622 c0 -422 -4 -636 -11 -663 -15 -55 -83 -119 -142 -133
-33 -9 -273 -12 -841 -12 l-795 0 -28 93 -29 92 776 5 c426 3 783 9 793 14 37
18 47 59 47 196 l0 130 -36 0 c-30 0 -43 -8 -85 -54 -76 -84 -125 -101 -284
-101 -126 0 -132 1 -199 33 -127 60 -204 144 -253 278 -31 86 -42 252 -23 362
33 199 187 363 375 401 66 13 198 5 260 -16z m-1401 -461 l130 -453 40 3 40 3
130 453 129 452 118 0 c89 0 119 -3 119 -12 0 -7 -52 -175 -115 -373 -64 -198
-138 -431 -166 -518 l-50 -157 -206 2 -206 3 -169 525 c-92 289 -168 526 -168
528 0 1 55 1 122 0 l122 -3 130 -453z"/>
<path d="M1757 1780 c-104 -18 -191 -84 -236 -180 -23 -49 -26 -67 -26 -170 0
-96 4 -123 22 -161 30 -66 86 -124 151 -156 50 -25 68 -28 152 -28 82 0 103 4
152 27 122 57 179 156 180 313 1 107 -11 157 -55 222 -68 102 -205 156 -340
133z"/>
</g>
</svg>
