<svg width="56" height="56" viewBox="0 0 56 56" fill="none" xmlns="http://www.w3.org/2000/svg">
<path d="M3.91892 1C3.14477 1 2.40233 1.30753 1.85493 1.85493C1.30753 2.40233 1 3.14477 1 3.91892V52.0811C1 52.8552 1.30753 53.5977 1.85493 54.1451C2.40233 54.6925 3.14477 55 3.91892 55H52.0811C52.8552 55 53.5977 54.6925 54.1451 54.1451C54.6925 53.5977 55 52.8552 55 52.0811V3.91892C55 3.14477 54.6925 2.40233 54.1451 1.85493C53.5977 1.30753 52.8552 1 52.0811 1H3.91892Z" stroke="white" stroke-linecap="round" stroke-linejoin="round"/>
<path d="M42.6019 36.2477C42.1198 37.0934 41.4224 37.7964 40.5806 38.2853C39.7388 38.7741 38.7825 39.0314 37.809 39.0309V39.0309C36.3462 39.0309 34.9432 38.4499 33.9086 37.4156C32.8741 36.3813 32.2927 34.9785 32.2923 33.5156V29.9312C32.2923 28.4681 32.8735 27.0648 33.9081 26.0303C34.9427 24.9957 36.3459 24.4144 37.809 24.4144V24.4144C39.2719 24.4148 40.6748 24.9962 41.709 26.0308C42.7433 27.0653 43.3243 28.4683 43.3243 29.9312V31.7234H32.2938M21.7769 28.0003H12.6757M32.2938 16.9697H43.3243M21.7769 28.0003C23.2243 28.0239 24.6044 28.6154 25.6197 29.6473C26.6349 30.6792 27.2039 32.0688 27.2039 33.5163C27.2039 34.9639 26.6349 36.3535 25.6197 37.3854C24.6044 38.4173 23.2243 39.0088 21.7769 39.0324H12.6757V16.9697H21.7769C23.2177 17.0029 24.5883 17.5985 25.5955 18.6292C26.6028 19.6599 27.1668 21.0439 27.1668 22.485C27.1668 23.9262 26.6028 25.3101 25.5955 26.3408C24.5883 27.3715 23.2177 27.9672 21.7769 28.0003V28.0003Z" stroke="white" stroke-linecap="round" stroke-linejoin="round"/>
</svg>
