<svg width="26" height="27" viewBox="0 0 26 27" fill="none" xmlns="http://www.w3.org/2000/svg">
<path d="M24.5633 0.943808V0.943968L24.576 0.943648C24.6944 0.940651 24.8123 0.961015 24.9228 1.00358C25.0333 1.04614 25.1344 1.11006 25.2202 1.1917C25.306 1.27333 25.3749 1.37108 25.423 1.47935C25.4703 1.58594 25.4964 1.70068 25.5 1.8172V25.0418C25.5 25.2809 25.405 25.5102 25.2359 25.6793C25.0668 25.8484 24.8375 25.9434 24.5984 25.9434H1.40162C1.16249 25.9434 0.933159 25.8484 0.764075 25.6793C0.594989 25.5102 0.5 25.2809 0.5 25.0418L0.5 1.8454L0.5 1.84525C0.499927 1.60999 0.591816 1.38401 0.756056 1.21556C0.919002 1.04844 1.14035 0.951077 1.37351 0.943808H24.5633Z" stroke="#D9D9D9" stroke-linecap="round" stroke-linejoin="round"/>
<path d="M5.63867 9.94531L13.001 15.0989L20.3634 9.94531" stroke="#D9D9D9" stroke-linecap="round" stroke-linejoin="round"/>
<rect x="5.63867" y="8.28906" width="14.7246" height="10.3066" rx="1" stroke="#D9D9D9"/>
</svg>
