<svg width="56" height="56" viewBox="0 0 56 56" fill="none" xmlns="http://www.w3.org/2000/svg">
<path d="M44.4911 8.221C43.8607 8.21242 43.242 8.39096 42.713 8.73402C42.1841 9.07709 41.7688 9.56929 41.5197 10.1484C41.2705 10.7275 41.1986 11.3674 41.3131 11.9874C41.4277 12.6073 41.7234 13.1794 42.1631 13.6312C42.6027 14.083 43.1664 14.3944 43.783 14.5258C44.3996 14.6573 45.0413 14.603 45.627 14.3698C46.2126 14.1365 46.716 13.7349 47.0735 13.2156C47.4309 12.6963 47.6263 12.0826 47.635 11.4523V11.3649C47.6274 10.5335 47.2937 9.73819 46.7058 9.15023C46.1178 8.56227 45.3225 8.22859 44.4911 8.221Z" stroke="white" stroke-linecap="round" stroke-linejoin="round"/>
<path d="M52.0162 1.00093H3.83828C3.0789 1.01992 2.35702 1.33499 1.82674 1.87887C1.29645 2.42275 0.999763 3.15237 1 3.91198V52.0899C1 52.8619 1.3067 53.6024 1.85263 54.1483C2.39856 54.6942 3.13899 55.0009 3.91105 55.0009H52.0889C52.861 55.0009 53.6014 54.6942 54.1474 54.1483C54.6933 53.6024 55 52.8619 55 52.0899V3.83921C54.9906 3.45689 54.9059 3.08017 54.7508 2.73059C54.5957 2.38101 54.3733 2.06541 54.0962 1.80183C53.8191 1.53824 53.4928 1.33185 53.1359 1.19443C52.779 1.057 52.3985 0.991255 52.0162 1.00093Z" stroke="white" stroke-linecap="round" stroke-linejoin="round"/>
<path d="M27.9272 15.877C25.5436 15.877 23.2135 16.5838 21.2316 17.908C19.2497 19.2323 17.705 21.1145 16.7928 23.3167C15.8806 25.5189 15.642 27.9421 16.107 30.2799C16.572 32.6177 17.7198 34.7651 19.4053 36.4506C21.0908 38.1361 23.2382 39.2839 25.576 39.7489C27.9138 40.2139 30.337 39.9752 32.5392 39.0631C34.7414 38.1509 36.6236 36.6062 37.9478 34.6243C39.2721 32.6424 39.9789 30.3123 39.9789 27.9287V27.9287C39.9789 24.7324 38.7092 21.667 36.4491 19.4068C34.1889 17.1467 31.1235 15.877 27.9272 15.877V15.877Z" stroke="white" stroke-linecap="round" stroke-linejoin="round"/>
</svg>
