<svg width="56" height="56" viewBox="0 0 56 56" fill="none" xmlns="http://www.w3.org/2000/svg">
<path d="M41.497 22.9585C40.4114 22.9437 39.3457 23.2512 38.4349 23.842C37.524 24.4328 36.8088 25.2804 36.3796 26.2777C35.9505 27.2749 35.8267 28.377 36.024 29.4446C36.2212 30.5122 36.7306 31.4974 37.4877 32.2755C38.2448 33.0536 39.2157 33.5898 40.2775 33.8161C41.3394 34.0425 42.4445 33.949 43.4532 33.5474C44.4619 33.1457 45.3288 32.454 45.9444 31.5597C46.5599 30.6654 46.8965 29.6087 46.9114 28.5231V28.3727C46.8984 26.9408 46.3237 25.5713 45.3111 24.5588C44.2985 23.5462 42.9289 22.9716 41.497 22.9585Z" stroke="white" stroke-linecap="round" stroke-linejoin="round"/>
<path d="M51.918 1.00074H3.83281C3.0749 1.01583 2.35441 1.26623 1.82515 1.69848C1.29588 2.13073 0.999763 2.7106 1 3.3143V41.6037C1 42.2173 1.30611 42.8057 1.85099 43.2396C2.39586 43.6735 3.13487 43.9172 3.90545 43.9172H51.9906C52.7612 43.9172 53.5002 43.6735 54.0451 43.2396C54.5899 42.8057 54.896 42.2173 54.896 41.6037V3.25646C54.8866 2.95261 54.8021 2.65321 54.6473 2.37538C54.4925 2.09755 54.2705 1.84673 53.994 1.63725C53.7174 1.42777 53.3917 1.26373 53.0355 1.15452C52.6793 1.0453 52.2995 0.99305 51.918 1.00074Z" stroke="white" stroke-linecap="round" stroke-linejoin="round"/>
<path d="M40.432 54.8963H16.3895C16.0105 54.8924 15.6503 54.8284 15.3856 54.7178C15.121 54.6072 14.9729 54.4589 14.9731 54.3045V44.5095C14.9731 44.3525 15.1261 44.202 15.3985 44.091C15.671 43.98 16.0405 43.9177 16.4258 43.9177H40.4683C40.8536 43.9177 41.2231 43.98 41.4956 44.091C41.768 44.202 41.9211 44.3525 41.9211 44.5095V54.3193C41.9164 54.397 41.8741 54.4736 41.7967 54.5446C41.7193 54.6157 41.6083 54.6799 41.47 54.7335C41.3318 54.7871 41.1689 54.829 40.9908 54.857C40.8127 54.8849 40.6228 54.8983 40.432 54.8963Z" stroke="white" stroke-linecap="round" stroke-linejoin="round"/>
<line x1="28.448" y1="43.917" x2="28.448" y2="54.8958" stroke="white"/>
<line x1="21.4615" y1="43.917" x2="21.4615" y2="54.8958" stroke="white"/>
<line x1="35.4345" y1="43.917" x2="35.4345" y2="54.8958" stroke="white"/>
<line x1="20.317" y1="23.3116" x2="9.33814" y2="34.2904" stroke="white"/>
<line x1="20.317" y1="23.3116" x2="9.33814" y2="34.2904" stroke="white"/>
<line x1="20.317" y1="23.3116" x2="9.33814" y2="34.2904" stroke="white"/>
<line x1="9.33814" y1="23.6025" x2="20.317" y2="34.5813" stroke="white"/>
<line x1="9.33814" y1="23.6025" x2="20.317" y2="34.5813" stroke="white"/>
<line x1="9.33814" y1="23.6025" x2="20.317" y2="34.5813" stroke="white"/>
</svg>
