<svg width="26" height="27" viewBox="0 0 26 27" fill="none" xmlns="http://www.w3.org/2000/svg">
<path d="M24.5633 0.943808V0.943968L24.576 0.943648C24.6944 0.940651 24.8123 0.961015 24.9228 1.00358C25.0333 1.04614 25.1344 1.11006 25.2202 1.1917C25.306 1.27333 25.3749 1.37108 25.423 1.47935C25.4703 1.58594 25.4964 1.70068 25.5 1.8172V25.0418C25.5 25.2809 25.405 25.5102 25.2359 25.6793C25.0668 25.8484 24.8375 25.9434 24.5984 25.9434H1.40162C1.16249 25.9434 0.933159 25.8484 0.764075 25.6793C0.594989 25.5102 0.5 25.2809 0.5 25.0418L0.5 1.8454L0.5 1.84525C0.499927 1.60999 0.591816 1.38401 0.756056 1.21556C0.919002 1.04844 1.14035 0.951077 1.37351 0.943808H24.5633Z" stroke="#D9D9D9" stroke-linecap="round" stroke-linejoin="round"/>
<path d="M13.0044 6.03516C11.7175 6.03654 10.453 6.37282 9.3354 7.01094C8.21779 7.64906 7.28549 8.56705 6.63017 9.67465C5.97484 10.7822 5.61906 12.0413 5.59779 13.3281C5.57652 14.6149 5.89051 15.885 6.50887 17.0136L5.5957 20.8523L9.43445 19.9392C10.4245 20.4823 11.5257 20.7919 12.6538 20.8443C13.7818 20.8968 14.907 20.6906 15.9432 20.2417C16.9794 19.7927 17.8992 19.1128 18.6325 18.2539C19.3657 17.3951 19.8928 16.3799 20.1737 15.2862C20.4545 14.1924 20.4816 13.0489 20.2528 11.943C20.0241 10.8371 19.5455 9.79821 18.8538 8.9056C18.1621 8.01299 17.2754 7.29033 16.2616 6.79283C15.2478 6.29534 14.1337 6.03618 13.0044 6.03516ZM9.30006 9.40176H11.3194C11.4108 9.40176 11.4984 9.43806 11.563 9.50268C11.6277 9.5673 11.664 9.65495 11.664 9.74634C11.6527 10.2059 11.7299 10.6633 11.8914 11.0937C11.9609 11.2377 11.9762 11.402 11.9345 11.5565C11.8927 11.7109 11.7967 11.8451 11.664 11.9345L11.2708 12.2687C11.584 12.8804 11.9936 13.4377 12.4838 13.9193C12.9615 14.4174 13.5165 14.8352 14.1275 15.1563L14.5034 14.8049C14.848 14.4603 15.0065 14.4603 15.3442 14.5774C15.7746 14.7389 16.232 14.8162 16.6915 14.8049C16.7816 14.809 16.8668 14.8467 16.9306 14.9104C16.9943 14.9742 17.0319 15.0594 17.0361 15.1494V17.1687C17.0319 17.2587 16.9943 17.344 16.9306 17.4077C16.8668 17.4714 16.7816 17.5091 16.6915 17.5133C14.6645 17.425 12.7431 16.5847 11.3021 15.1563C9.87152 13.7169 9.03081 11.7946 8.94513 9.76702C8.94595 9.67217 8.98329 9.58128 9.0494 9.51326C9.1155 9.44523 9.20527 9.4053 9.30006 9.40176Z" stroke="#64FF9E" stroke-linecap="round" stroke-linejoin="round"/>
</svg>
